<svg width="70" height="50" viewBox="0 0 70 50" fill="none" xmlns="http://www.w3.org/2000/svg">
<path d="M0.557122 24.0753L23.2583 1.37408C23.9961 0.636293 25.1955 0.636293 25.9332 1.37408C26.671 2.11187 26.671 3.31125 25.9332 4.04904L6.46321 23.5191L68.1082 23.5191C69.1525 23.5191 70 24.3666 70 25.4108C70 26.4551 69.1525 27.3026 68.1082 27.3026L6.46321 27.3026L25.9332 46.7726C26.671 47.5104 26.671 48.7098 25.9332 49.4476C25.5625 49.8184 25.0782 50 24.5939 50C24.1096 50 23.6253 49.8146 23.2545 49.4476L0.553338 26.7464C-0.184447 26.0086 -0.184447 24.8093 0.553338 24.0715L0.557122 24.0753Z" fill="white"/>
</svg>
